<svg width="64" height="64" viewBox="0 0 120 120" xmlns="http://www.w3.org/2000/svg">
  <defs>
    <linearGradient id="g" x1="0" y1="0" x2="1" y2="1">
      <stop offset="0" stop-color="#42a5f5"></stop>
      <stop offset="1" stop-color="#1e88e5"></stop>
    </linearGradient>
  </defs>
  <circle cx="60" cy="60" r="60" fill="url(#g)"></circle>
  <path d="M20,70 A60,60 0 0,1 100,70" fill="none" stroke="white" stroke-width="8" opacity="0.9"></path>
  <line x1="60" y1="60" x2="95" y2="68" stroke="white" stroke-width="8" stroke-linecap="round"></line>
  <circle cx="60" cy="60" r="7" fill="white"></circle>
  <path d="M49 86c0-8 11-16 11-24 0 8 11 16 11 24a11 11 0 0 1-22 0z" fill="white"></path>
  <path d="M72 80l10-14-5 0 6-12-14 18 6 0-3 8z" fill="#1565c0"></path>
</svg>
